<?xml version="1.0" standalone="no"?>
<!DOCTYPE svg PUBLIC "-//W3C//DTD SVG 20010904//EN"
 "http://www.w3.org/TR/2001/REC-SVG-20010904/DTD/svg10.dtd">
<svg version="1.0" xmlns="http://www.w3.org/2000/svg"
 width="200.000000pt" height="200.000000pt" viewBox="0 0 200.000000 200.000000"
 preserveAspectRatio="xMidYMid meet">

<g transform="translate(0.000000,200.000000) scale(0.100000,-0.100000)"
fill="#000000" stroke="none">
<path d="M564 1570 c-260 -38 -454 -261 -454 -520 1 -173 87 -347 215 -430
104 -68 176 -92 285 -98 137 -6 262 31 348 102 16 15 34 26 39 26 6 0 18 9 28
20 10 11 15 20 11 20 -4 0 4 14 19 31 66 79 115 218 115 328 0 153 -96 342
-213 418 -96 63 -144 84 -226 99 -84 15 -93 15 -167 4z m191 -65 c59 -16 129
-50 175 -85 l25 -19 -30 -31 -31 -30 -79 40 c-132 67 -260 63 -379 -11 l-49
-30 -31 31 -31 31 25 21 c101 83 271 118 405 83z m-15 -150 c24 -8 58 -25 77
-36 l34 -21 -21 -23 c-12 -13 -18 -28 -14 -38 4 -12 1 -17 -10 -17 -10 0 -16
-8 -15 -22 1 -17 2 -19 6 -5 5 20 58 24 67 5 4 -7 4 -3 2 8 -3 16 14 39 63 88
l67 66 21 -28 c11 -15 30 -47 42 -70 l21 -42 -70 0 c-66 0 -70 -1 -69 -22 1
-17 2 -19 6 -5 4 14 17 17 89 17 68 0 84 -3 84 -15 0 -8 -6 -15 -14 -15 -12 0
-13 -7 -5 -32 14 -49 11 -157 -6 -223 -17 -65 -58 -145 -87 -172 -18 -16 -22
-14 -93 57 -73 73 -74 74 -95 55 l-20 -18 25 -27 26 -27 -60 -31 c-103 -55
-219 -54 -319 5 l-44 25 23 24 c22 23 22 24 4 44 -19 21 -19 20 -96 -56 l-77
-76 -32 47 c-111 162 -110 391 1 545 l31 43 77 -77 c77 -76 77 -77 96 -56 18
20 18 21 -4 44 -17 18 -19 25 -9 33 19 15 79 45 108 54 43 13 146 10 190 -6z
m-288 -639 c132 -73 279 -65 410 21 27 17 28 17 58 -12 34 -32 30 -42 -30 -80
-94 -59 -223 -85 -330 -65 -66 12 -165 54 -210 89 l-25 20 29 30 c17 17 31 31
33 31 1 0 31 -16 65 -34z"/>
<path d="M510 1045 l0 -175 58 2 57 2 -52 3 -53 4 0 164 0 164 58 4 57 3 -62
2 -63 2 0 -175z"/>
<path d="M658 1195 c12 -9 26 -30 31 -48 6 -23 9 -26 10 -11 1 24 -34 74 -52
74 -6 0 -2 -7 11 -15z"/>
<path d="M572 1048 l2 -143 3 135 c3 92 7 137 16 142 8 5 7 8 -5 8 -16 0 -18
-13 -16 -142z"/>
<path d="M622 1166 c7 -8 15 -12 17 -11 5 6 -10 25 -20 25 -5 0 -4 -6 3 -14z"/>
<path d="M872 1160 c0 -14 2 -19 5 -12 2 6 2 18 0 25 -3 6 -5 1 -5 -13z"/>
<path d="M1060 1031 l0 -150 -27 -4 c-26 -4 -26 -4 5 -6 l32 -1 0 155 c0 85
-2 155 -5 155 -3 0 -5 -67 -5 -149z"/>
<path d="M782 1150 c0 -14 2 -19 5 -12 2 6 2 18 0 25 -3 6 -5 1 -5 -13z"/>
<path d="M820 1129 c0 -11 5 -17 10 -14 6 3 10 13 10 21 0 8 -4 14 -10 14 -5
0 -10 -9 -10 -21z"/>
<path d="M644 1045 c0 -55 1 -76 3 -47 2 29 2 74 0 100 -2 26 -3 2 -3 -53z"/>
<path d="M882 1110 c0 -14 2 -19 5 -12 2 6 2 18 0 25 -3 6 -5 1 -5 -13z"/>
<path d="M772 1100 c0 -14 2 -19 5 -12 2 6 2 18 0 25 -3 6 -5 1 -5 -13z"/>
<path d="M842 1075 c0 -16 2 -22 5 -12 2 9 2 23 0 30 -3 6 -5 -1 -5 -18z"/>
<path d="M812 1065 c0 -16 2 -22 5 -12 2 9 2 23 0 30 -3 6 -5 -1 -5 -18z"/>
<path d="M892 1060 c0 -14 2 -19 5 -12 2 6 2 18 0 25 -3 6 -5 1 -5 -13z"/>
<path d="M761 1054 c0 -11 3 -14 6 -6 3 7 2 16 -1 19 -3 4 -6 -2 -5 -13z"/>
<path d="M852 1015 c0 -16 2 -22 5 -12 2 9 2 23 0 30 -3 6 -5 -1 -5 -18z"/>
<path d="M801 1003 c-1 -31 1 -33 32 -32 29 2 29 2 5 6 -20 3 -28 11 -31 31
-4 24 -4 24 -6 -5z"/>
<path d="M902 1010 c0 -14 2 -19 5 -12 2 6 2 18 0 25 -3 6 -5 1 -5 -13z"/>
<path d="M751 1004 c0 -11 3 -14 6 -6 3 7 2 16 -1 19 -3 4 -6 -2 -5 -13z"/>
<path d="M742 960 c0 -14 2 -19 5 -12 2 6 2 18 0 25 -3 6 -5 1 -5 -13z"/>
<path d="M912 960 c0 -14 2 -19 5 -12 2 6 2 18 0 25 -3 6 -5 1 -5 -13z"/>
<path d="M690 952 c0 -10 -7 -29 -16 -42 l-16 -25 21 24 c19 21 29 61 16 61
-3 0 -5 -8 -5 -18z"/>
<path d="M622 924 c-7 -8 -8 -14 -3 -14 10 0 25 19 20 25 -2 1 -10 -3 -17 -11z"/>
<path d="M732 910 c0 -14 2 -19 5 -12 2 6 2 18 0 25 -3 6 -5 1 -5 -13z"/>
<path d="M921 914 c0 -11 3 -14 6 -6 3 7 2 16 -1 19 -3 4 -6 -2 -5 -13z"/>
<path d="M874 895 c1 -15 9 -21 34 -23 17 -2 32 1 32 6 0 5 -13 7 -29 4 -22
-3 -30 0 -34 14 -3 16 -4 16 -3 -1z"/>
<path d="M780 896 c0 -8 -12 -17 -27 -19 -26 -4 -26 -4 5 -6 26 -1 32 3 32 19
0 11 -2 20 -5 20 -3 0 -5 -6 -5 -14z"/>
<path d="M1193 1213 l27 -4 0 -150 0 -149 40 0 c28 0 40 -4 40 -15 0 -10 -17
-15 -67 -18 l-68 -3 73 -2 c71 -2 72 -2 72 23 0 23 -4 25 -40 25 l-40 0 0 150
0 150 -32 -1 c-31 -2 -31 -2 -5 -6z"/>
<path d="M1340 1045 l0 -175 33 1 c30 2 30 2 5 6 l-28 4 0 164 0 164 28 4 c25
4 25 4 -5 6 l-33 1 0 -175z"/>
<path d="M1532 1213 c53 -3 68 -7 71 -21 3 -12 5 -11 6 6 1 21 -2 22 -71 20
l-73 -2 67 -3z"/>
<path d="M1650 1045 l0 -175 30 0 30 0 0 98 c1 89 2 95 15 72 22 -38 17 -10
-5 30 l-19 35 -1 -112 c0 -106 -1 -113 -20 -113 -19 0 -20 7 -20 166 l0 166
25 -4 c14 -3 25 -1 25 3 0 5 -13 9 -30 9 l-30 0 0 -175z"/>
<path d="M1790 1118 c0 -70 -3 -98 -10 -88 -15 24 -11 -2 5 -30 13 -23 14 -14
15 93 0 110 1 117 20 117 19 0 20 -7 20 -166 l0 -166 -25 4 c-14 3 -25 1 -25
-4 0 -5 12 -8 28 -6 l27 3 3 173 2 172 -30 0 -30 0 0 -102z"/>
<path d="M1710 1185 c0 -5 5 -17 10 -25 5 -8 10 -10 10 -5 0 6 -5 17 -10 25
-5 8 -10 11 -10 5z"/>
<path d="M1522 1128 l-2 -58 38 2 c36 1 36 1 5 5 -31 4 -32 6 -36 56 l-3 52
-2 -57z"/>
<path d="M1730 1135 c0 -5 5 -17 10 -25 5 -8 10 -10 10 -5 0 6 -5 17 -10 25
-5 8 -10 11 -10 5z"/>
<path d="M1750 1085 c0 -5 5 -17 10 -25 5 -8 10 -10 10 -5 0 6 -5 17 -10 25
-5 8 -10 11 -10 5z"/>
<path d="M1520 975 l0 -65 48 2 47 1 -42 4 -43 4 0 54 c0 53 0 54 33 58 31 4
31 4 -5 5 l-38 2 0 -65z"/>
<path d="M1740 1005 c0 -5 5 -17 10 -25 5 -8 10 -10 10 -5 0 6 -5 17 -10 25
-5 8 -10 11 -10 5z"/>
<path d="M1760 955 c0 -5 5 -17 10 -25 5 -8 10 -10 10 -5 0 6 -5 17 -10 25 -5
8 -10 11 -10 5z"/>
<path d="M1503 873 c20 -2 54 -2 75 0 20 2 3 4 -38 4 -41 0 -58 -2 -37 -4z"/>
</g>
</svg>
